<svg width="338" height="86" viewBox="0 0 338 86" fill="none" xmlns="http://www.w3.org/2000/svg">
<path d="M50 10.9599V26.5299C49.989 28.3882 49.2829 30.1751 48.0208 31.539C46.7587 32.9029 45.0318 33.7451 43.18 33.8999H37.08C34.0251 33.8763 30.9768 34.1881 27.99 34.8299H27.87C27.36 34.9399 26.87 35.0599 26.43 35.1899H26.4C16.34 37.8299 13.94 42.9599 13.72 43.4799L13.82 10.9299H0.15L0 66.0699H13.67V52.7199V47.4499V47.5299C13.6643 47.5036 13.6643 47.4763 13.67 47.4499H50V66.0699H63.67V10.9599H50Z" fill="black"/>
<path d="M77.909 47.823V39.3155H107.125L105.88 41.4735C105.88 41.2522 105.88 41.0447 105.88 40.851C105.88 40.6297 105.88 40.4222 105.88 40.2285C105.88 38.6515 105.506 37.1437 104.759 35.705C104.012 34.2387 102.85 33.049 101.273 32.136C99.7242 31.1953 97.7322 30.725 95.2975 30.725C92.8628 30.725 90.7602 31.2507 88.9895 32.302C87.2465 33.3257 85.9047 34.8058 84.964 36.7425C84.051 38.6792 83.5945 41.017 83.5945 43.756C83.5945 46.578 84.0372 48.9988 84.9225 51.0185C85.8355 53.0105 87.1773 54.546 88.948 55.625C90.7463 56.704 92.9735 57.2435 95.6295 57.2435C97.3448 57.2435 98.825 57.0913 100.07 56.787C101.315 56.455 102.325 56.04 103.099 55.542C103.902 55.044 104.51 54.4907 104.925 53.882C105.34 53.2733 105.589 52.6785 105.672 52.0975H118.371C118.205 53.9512 117.569 55.7772 116.462 57.5755C115.356 59.3462 113.82 60.9508 111.856 62.3895C109.892 63.8005 107.498 64.921 104.676 65.751C101.882 66.581 98.6867 66.996 95.09 66.996C90.2207 66.996 85.9738 66.0277 82.3495 64.091C78.7252 62.1267 75.917 59.4292 73.925 55.9985C71.933 52.5402 70.937 48.5562 70.937 44.0465C70.937 39.4815 71.9468 35.4837 73.9665 32.053C76.0138 28.5947 78.8497 25.911 82.474 24.002C86.126 22.0653 90.3452 21.097 95.1315 21.097C100.028 21.097 104.261 22.0792 107.83 24.0435C111.399 25.9802 114.152 28.7053 116.089 32.219C118.026 35.705 118.994 39.772 118.994 44.42C118.994 45.1117 118.98 45.7757 118.952 46.412C118.925 47.0483 118.883 47.5187 118.828 47.823H77.909ZM129.49 85.0485C128.106 85.0485 126.861 84.9932 125.755 84.8825C124.676 84.7995 123.998 84.7027 123.721 84.592V74.8395C124.081 75.0055 124.703 75.13 125.589 75.213C126.502 75.3237 127.47 75.379 128.494 75.379C129.849 75.379 131.067 75.1023 132.146 74.549C133.252 74.0233 134.193 73.2625 134.968 72.2665C135.77 71.2982 136.392 70.15 136.835 68.822L137.582 66.581L122.393 21.927H135.798L145.384 58.0735H143.89L153.103 21.927H166.342L151.194 68.1995C150.06 71.6855 148.663 74.6873 147.003 77.205C145.343 79.7227 143.129 81.6593 140.363 83.015C137.596 84.3707 133.972 85.0485 129.49 85.0485ZM204.316 66V50.313C204.316 49.7597 204.316 48.9988 204.316 48.0305C204.316 47.0622 204.316 46.08 204.316 45.084C204.316 44.088 204.316 43.2857 204.316 42.677C204.316 39.3017 203.707 36.701 202.49 34.875C201.273 33.0213 199.046 32.0945 195.809 32.0945C193.706 32.0945 191.935 32.5233 190.497 33.381C189.058 34.211 187.965 35.3868 187.218 36.9085C186.499 38.4302 186.139 40.2147 186.139 42.262L182.404 39.689C182.404 36.0093 183.193 32.7862 184.77 30.0195C186.347 27.2252 188.518 25.0395 191.285 23.4625C194.079 21.8855 197.303 21.097 200.955 21.097C206.35 21.097 210.403 22.6878 213.114 25.8695C215.825 29.0235 217.181 33.4225 217.181 39.0665C217.181 40.5052 217.181 42.2343 217.181 44.254C217.181 46.2737 217.181 48.6115 217.181 51.2675V66H204.316ZM173.274 66V1.1355H186.139V66H173.274ZM227.102 66V21.927H239.843V66H227.102ZM233.452 14.7475C231.46 14.7475 229.717 14.2218 228.223 13.1705C226.756 12.1192 226.023 10.639 226.023 8.73C226.023 6.79333 226.756 5.29933 228.223 4.248C229.717 3.19667 231.46 2.671 233.452 2.671C235.471 2.671 237.214 3.19667 238.681 4.248C240.175 5.29933 240.922 6.79333 240.922 8.73C240.922 10.6667 240.175 12.1607 238.681 13.212C237.214 14.2357 235.471 14.7475 233.452 14.7475ZM250.153 66V21.927H263.059V37.116L260.403 35.456C260.708 33.381 261.261 31.472 262.063 29.729C262.866 27.986 263.903 26.4782 265.176 25.2055C266.448 23.9052 267.956 22.8953 269.699 22.176C271.47 21.4567 273.49 21.097 275.758 21.097C277.529 21.097 278.912 21.2353 279.908 21.512C280.932 21.761 281.568 21.9547 281.817 22.093L279.701 33.63C279.452 33.4917 278.898 33.2703 278.041 32.966C277.183 32.6617 276.076 32.5095 274.721 32.5095C272.507 32.5095 270.654 32.883 269.16 33.63C267.666 34.377 266.462 35.373 265.549 36.618C264.664 37.8353 264.028 39.191 263.64 40.685C263.253 42.179 263.059 43.6868 263.059 45.2085V66H250.153ZM293.287 47.823V39.3155H322.504L321.259 41.4735C321.259 41.2522 321.259 41.0447 321.259 40.851C321.259 40.6297 321.259 40.4222 321.259 40.2285C321.259 38.6515 320.885 37.1437 320.138 35.705C319.391 34.2387 318.229 33.049 316.652 32.136C315.103 31.1953 313.111 30.725 310.676 30.725C308.241 30.725 306.139 31.2507 304.368 32.302C302.625 33.3257 301.283 34.8058 300.343 36.7425C299.429 38.6792 298.973 41.017 298.973 43.756C298.973 46.578 299.416 48.9988 300.301 51.0185C301.214 53.0105 302.556 54.546 304.327 55.625C306.125 56.704 308.352 57.2435 311.008 57.2435C312.723 57.2435 314.204 57.0913 315.449 56.787C316.694 56.455 317.703 56.04 318.478 55.542C319.28 55.044 319.889 54.4907 320.304 53.882C320.719 53.2733 320.968 52.6785 321.051 52.0975H333.75C333.584 53.9512 332.948 55.7772 331.841 57.5755C330.734 59.3462 329.199 60.9508 327.235 62.3895C325.27 63.8005 322.877 64.921 320.055 65.751C317.261 66.581 314.065 66.996 310.469 66.996C305.599 66.996 301.352 66.0277 297.728 64.091C294.104 62.1267 291.295 59.4292 289.303 55.9985C287.311 52.5402 286.315 48.5562 286.315 44.0465C286.315 39.4815 287.325 35.4837 289.345 32.053C291.392 28.5947 294.228 25.911 297.853 24.002C301.505 22.0653 305.724 21.097 310.51 21.097C315.407 21.097 319.64 22.0792 323.209 24.0435C326.778 25.9802 329.531 28.7053 331.468 32.219C333.404 35.705 334.373 39.772 334.373 44.42C334.373 45.1117 334.359 45.7757 334.331 46.412C334.303 47.0483 334.262 47.5187 334.207 47.823H293.287Z" fill="black"/>
</svg>
